<?xml version="1.0" encoding="UTF-8"?>
<!DOCTYPE svg PUBLIC "-//W3C//DTD SVG 1.1//EN" "http://www.w3.org/Graphics/SVG/1.1/DTD/svg11.dtd">
<svg xmlns="http://www.w3.org/2000/svg" version="1.1" width="64" height="64" style="shape-rendering:geometricPrecision; text-rendering:geometricPrecision; image-rendering:optimizeQuality; fill-rule:evenodd; clip-rule:evenodd" xmlns:xlink="http://www.w3.org/1999/xlink">
<g><path style="opacity:0.993" fill="#fdfdfd" d="M 266.5,-0.5 C 280.833,-0.5 295.167,-0.5 309.5,-0.5C 309.5,-0.166667 309.5,0.166667 309.5,0.5C 305.958,0.187225 302.625,0.520558 299.5,1.5C 298.833,1.5 298.167,1.5 297.5,1.5C 288.161,1.33355 278.827,1.50021 269.5,2C 267.942,2.21003 266.609,2.71003 265.5,3.5C 259.95,4.79636 254.617,6.46302 249.5,8.5C 245.739,9.5472 242.406,11.3805 239.5,14C 236.574,14.2178 233.74,14.7178 231,15.5C 216.199,12.8785 203.032,16.3785 191.5,26C 180.602,35.9064 172.436,47.7397 167,61.5C 144.99,110.504 123.324,159.504 102,208.5C 106.451,205.717 110.617,202.55 114.5,199C 115.437,198.308 116.103,198.475 116.5,199.5C 115.662,199.842 115.328,200.508 115.5,201.5C 108.815,207.685 102.315,214.019 96,220.5C 77.6779,261.146 59.3446,301.813 41,342.5C 40.3333,355.5 40.3333,368.5 41,381.5C 42.4998,379.531 44.3331,378.198 46.5,377.5C 47.8333,376.167 49.1667,374.833 50.5,373.5C 52.8333,371.833 54.8333,369.833 56.5,367.5C 58.1667,366.5 59.5,365.167 60.5,363.5C 63.7843,361.883 66.4509,359.55 68.5,356.5C 70.1911,355.136 71.8577,353.803 73.5,352.5C 114.027,315.399 157.027,281.399 202.5,250.5C 224.962,200.903 247.462,151.237 270,101.5C 284.104,100.178 298.27,100.178 312.5,101.5C 352.004,190.499 392.004,279.165 432.5,367.5C 455.695,360.878 479.028,354.878 502.5,349.5C 504.786,349.405 506.786,348.738 508.5,347.5C 509.791,347.737 510.791,347.404 511.5,346.5C 513.655,346.628 515.655,346.128 517.5,345C 516.427,343.687 515.76,342.187 515.5,340.5C 509.294,328.734 502.628,317.401 495.5,306.5C 494.3,305.708 492.967,305.708 491.5,306.5C 490.391,306.557 489.391,306.89 488.5,307.5C 487.041,307.433 485.708,307.766 484.5,308.5C 484.167,308.5 483.833,308.5 483.5,308.5C 476.424,309.523 469.424,310.69 462.5,312C 468.207,308.932 474.207,306.765 480.5,305.5C 482.306,304.976 483.972,304.309 485.5,303.5C 487.842,303.496 489.842,302.663 491.5,301C 483.144,287.455 475.978,273.289 470,258.5C 468.057,257.193 466.223,257.193 464.5,258.5C 463.178,258.33 462.011,258.663 461,259.5C 460.761,258.212 461.261,257.212 462.5,256.5C 463.167,256.167 463.833,255.833 464.5,255.5C 468.186,253.767 471.852,251.934 475.5,250C 469.557,238.024 463.89,225.858 458.5,213.5C 453.868,213.041 449.534,214.041 445.5,216.5C 443.597,216.796 441.93,217.463 440.5,218.5C 438.901,218.232 437.568,218.566 436.5,219.5C 435.508,219.328 434.842,219.662 434.5,220.5C 425.697,223.156 417.197,226.489 409,230.5C 408.833,230.167 408.667,229.833 408.5,229.5C 416.42,224.373 424.753,220.04 433.5,216.5C 434.167,216.5 434.5,216.167 434.5,215.5C 435.833,215.167 437.167,214.833 438.5,214.5C 440.5,213.5 442.5,212.5 444.5,211.5C 448.419,210.207 452.086,208.374 455.5,206C 430.751,151.344 405.917,96.8437 381,42.5C 371.965,28.5698 359.465,19.4032 343.5,15C 341.5,13 339.5,11 337.5,9C 332.071,5.68059 326.405,3.18059 320.5,1.5C 417.688,14.6375 490.855,63.3042 540,147.5C 559.427,183.273 571.26,221.273 575.5,261.5C 575.5,278.833 575.5,296.167 575.5,313.5C 565.257,401.136 524.59,471.303 453.5,524C 410.913,553.021 364.246,570.187 313.5,575.5C 296.167,575.5 278.833,575.5 261.5,575.5C 171.137,564.88 99.9701,522.547 48,448.5C 20.3794,406.137 4.21273,359.804 -0.5,309.5C -0.5,295.167 -0.5,280.833 -0.5,266.5C 9.2793,170.854 54.2793,96.3539 134.5,43C 175.399,18.0881 219.399,3.58814 266.5,-0.5 Z"/></g>
<g><path style="opacity:1" fill="#f5f5f5" d="M 309.5,0.5 C 313.234,0.322742 316.901,0.656075 320.5,1.5C 326.405,3.18059 332.071,5.68059 337.5,9C 339.5,11 341.5,13 343.5,15C 359.465,19.4032 371.965,28.5698 381,42.5C 405.917,96.8437 430.751,151.344 455.5,206C 452.086,208.374 448.419,210.207 444.5,211.5C 443.222,206.737 441.722,202.07 440,197.5C 430.266,179.127 420.599,160.794 411,142.5C 409.333,141.5 408,140.167 407,138.5C 386.65,98.4539 365.316,59.1206 343,20.5C 333.722,10.6132 322.555,3.94654 309.5,0.5 Z"/></g>
<g><path style="opacity:1" fill="#010101" d="M 303.5,7.5 C 304.833,7.83333 306.167,8.16667 307.5,8.5C 310.74,10.951 314.407,12.6176 318.5,13.5C 326.542,19.8815 333.208,27.5482 338.5,36.5C 344.472,48.8015 350.806,60.8015 357.5,72.5C 360.785,81.0713 364.619,89.4047 369,97.5C 369.708,98.3805 370.542,99.0472 371.5,99.5C 372.338,99.8417 372.672,100.508 372.5,101.5C 374.643,107.766 377.81,113.433 382,118.5C 388.098,131.916 394.931,144.916 402.5,157.5C 403.939,161.842 405.939,165.842 408.5,169.5C 409.728,170.306 410.728,171.306 411.5,172.5C 417.945,187.615 425.278,202.281 433.5,216.5C 424.753,220.04 416.42,224.373 408.5,229.5C 408.667,229.833 408.833,230.167 409,230.5C 417.197,226.489 425.697,223.156 434.5,220.5C 435.496,220.414 436.329,220.748 437,221.5C 438.117,226.267 440.45,230.267 444,233.5C 444.911,237.23 446.411,240.563 448.5,243.5C 453.838,251.643 458.338,260.31 462,269.5C 466.557,276.051 470.224,283.051 473,290.5C 477.074,294.733 479.574,299.733 480.5,305.5C 474.207,306.765 468.207,308.932 462.5,312C 469.424,310.69 476.424,309.523 483.5,308.5C 483.892,310.179 484.392,311.846 485,313.5C 487.114,316.093 488.947,318.76 490.5,321.5C 495.705,329.919 500.372,338.753 504.5,348C 503.584,348.278 502.918,348.778 502.5,349.5C 479.028,354.878 455.695,360.878 432.5,367.5C 392.004,279.165 352.004,190.499 312.5,101.5C 298.27,100.178 284.104,100.178 270,101.5C 247.462,151.237 224.962,200.903 202.5,250.5C 157.027,281.399 114.027,315.399 73.5,352.5C 73.0618,352.565 72.7284,352.399 72.5,352C 82.5209,334.456 91.8542,316.622 100.5,298.5C 101.167,298.5 101.5,298.167 101.5,297.5C 104.014,294.478 106.181,291.144 108,287.5C 114.271,273.665 121.105,260.165 128.5,247C 132.736,241.094 136.569,234.928 140,228.5C 141.768,224.914 143.268,221.247 144.5,217.5C 144.782,216.222 145.449,215.222 146.5,214.5C 150.246,208.965 153.246,202.965 155.5,196.5C 158.393,194.252 160.06,191.252 160.5,187.5C 163.767,183.722 166.101,179.389 167.5,174.5C 182.432,149.067 196.432,123.067 209.5,96.5C 222.508,74.4159 234.842,51.7492 246.5,28.5C 248.587,27.4154 249.92,25.7488 250.5,23.5C 253.543,19.4564 257.209,16.1231 261.5,13.5C 265.083,11.6396 268.749,9.97289 272.5,8.5C 277.588,6.44838 282.922,5.44838 288.5,5.5C 293.695,5.46347 298.695,6.13014 303.5,7.5 Z"/></g>
<g><path style="opacity:1" fill="#f1f1f1" d="M 265.5,3.5 C 248.347,10.3208 235.68,21.9875 227.5,38.5C 226.5,38.5 225.5,38.5 224.5,38.5C 224.5,39.5 224.5,40.5 224.5,41.5C 217.158,43.088 210.658,46.4213 205,51.5C 198,60.8333 191,70.1667 184,79.5C 178.495,87.8399 173.495,96.5065 169,105.5C 149.788,149.779 129.788,193.779 109,237.5C 89.8429,282.807 70.0096,327.807 49.5,372.5C 49.6236,373.107 49.9569,373.44 50.5,373.5C 49.1667,374.833 47.8333,376.167 46.5,377.5C 45.9569,377.44 45.6236,377.107 45.5,376.5C 51.4527,365.292 54.286,353.292 54,340.5C 75.4583,294.179 95.9583,247.846 115.5,201.5C 115.328,200.508 115.662,199.842 116.5,199.5C 134.773,161.28 152.273,122.613 169,83.5C 177.541,64.1273 190.041,47.7939 206.5,34.5C 214.257,30.1439 222.59,27.8106 231.5,27.5C 236.846,20.4887 242.846,14.1554 249.5,8.5C 254.617,6.46302 259.95,4.79636 265.5,3.5 Z"/></g>
<g><path style="opacity:1" fill="#f7f7f7" d="M 249.5,8.5 C 242.846,14.1554 236.846,20.4887 231.5,27.5C 222.59,27.8106 214.257,30.1439 206.5,34.5C 190.041,47.7939 177.541,64.1273 169,83.5C 152.273,122.613 134.773,161.28 116.5,199.5C 116.103,198.475 115.437,198.308 114.5,199C 110.617,202.55 106.451,205.717 102,208.5C 123.324,159.504 144.99,110.504 167,61.5C 172.436,47.7397 180.602,35.9064 191.5,26C 203.032,16.3785 216.199,12.8785 231,15.5C 233.74,14.7178 236.574,14.2178 239.5,14C 242.406,11.3805 245.739,9.5472 249.5,8.5 Z"/></g>
<g><path style="opacity:1" fill="#e9e9e9" d="M 297.5,1.5 C 297.5,1.83333 297.5,2.16667 297.5,2.5C 290.825,2.33375 284.158,2.50042 277.5,3C 275.942,3.21003 274.609,3.71003 273.5,4.5C 271.143,4.33669 268.81,4.50335 266.5,5C 256.709,9.4548 248.209,15.6215 241,23.5C 230.163,39.4495 219.496,55.7828 209,72.5C 178.667,129.167 148.333,185.833 118,242.5C 110.029,257.423 103.029,272.757 97,288.5C 89.9147,300.677 83.4147,313.01 77.5,325.5C 70.9858,337.199 64.4858,348.865 58,360.5C 57.023,362.74 56.523,365.073 56.5,367.5C 54.8333,369.833 52.8333,371.833 50.5,373.5C 49.9569,373.44 49.6236,373.107 49.5,372.5C 70.0096,327.807 89.8429,282.807 109,237.5C 129.788,193.779 149.788,149.779 169,105.5C 173.495,96.5065 178.495,87.8399 184,79.5C 191,70.1667 198,60.8333 205,51.5C 210.658,46.4213 217.158,43.088 224.5,41.5C 224.5,40.5 224.5,39.5 224.5,38.5C 225.5,38.5 226.5,38.5 227.5,38.5C 235.68,21.9875 248.347,10.3208 265.5,3.5C 266.609,2.71003 267.942,2.21003 269.5,2C 278.827,1.50021 288.161,1.33355 297.5,1.5 Z"/></g>
<g><path style="opacity:1" fill="#535353" d="M 250.5,23.5 C 249.92,25.7488 248.587,27.4154 246.5,28.5C 247.08,26.2512 248.413,24.5846 250.5,23.5 Z"/></g>
<g><path style="opacity:1" fill="#dfdfdf" d="M 299.5,1.5 C 302.625,0.520558 305.958,0.187225 309.5,0.5C 322.555,3.94654 333.722,10.6132 343,20.5C 365.316,59.1206 386.65,98.4539 407,138.5C 408,140.167 409.333,141.5 411,142.5C 420.599,160.794 430.266,179.127 440,197.5C 441.722,202.07 443.222,206.737 444.5,211.5C 442.5,212.5 440.5,213.5 438.5,214.5C 438.662,212.473 438.495,210.473 438,208.5C 429.222,191.615 420.389,174.615 411.5,157.5C 410.5,156.833 409.5,156.167 408.5,155.5C 406.095,150.693 404.261,145.693 403,140.5C 397.345,129.187 391.178,118.187 384.5,107.5C 381.493,100.139 378.493,92.8053 375.5,85.5C 371.828,78.8153 368.661,71.8153 366,64.5C 359.014,52.5322 352.014,40.5322 345,28.5C 337.869,22.3441 331.035,15.8441 324.5,9C 316.793,4.37503 308.459,1.87503 299.5,1.5 Z"/></g>
<g><path style="opacity:1" fill="#d8d8d8" d="M 273.5,4.5 C 269.965,5.37796 266.632,6.71129 263.5,8.5C 263.608,10.5138 262.942,12.1805 261.5,13.5C 256.597,12.7752 252.597,14.6085 249.5,19C 249.957,19.414 250.291,19.914 250.5,20.5C 247.476,23.9052 243.976,26.9052 240,29.5C 238.803,32.0891 237.803,34.7558 237,37.5C 233.729,41.0472 231.229,45.0472 229.5,49.5C 223.938,54.6186 220.438,60.9519 219,68.5C 215.716,73.1202 212.05,77.4535 208,81.5C 205.22,89.0612 201.887,96.3945 198,103.5C 190.125,117.94 181.792,131.94 173,145.5C 163.304,163.56 154.137,181.893 145.5,200.5C 134.448,218.604 124.448,237.271 115.5,256.5C 114.758,257.287 113.925,257.953 113,258.5C 107.167,271.5 101.333,284.5 95.5,297.5C 82.278,318.608 70.6113,340.608 60.5,363.5C 59.5,365.167 58.1667,366.5 56.5,367.5C 56.523,365.073 57.023,362.74 58,360.5C 64.4858,348.865 70.9858,337.199 77.5,325.5C 83.4147,313.01 89.9147,300.677 97,288.5C 103.029,272.757 110.029,257.423 118,242.5C 148.333,185.833 178.667,129.167 209,72.5C 219.496,55.7828 230.163,39.4495 241,23.5C 248.209,15.6215 256.709,9.4548 266.5,5C 268.81,4.50335 271.143,4.33669 273.5,4.5 Z"/></g>
<g><path style="opacity:1" fill="#a7a7a7" d="M 261.5,13.5 C 257.209,16.1231 253.543,19.4564 250.5,23.5C 248.413,24.5846 247.08,26.2512 246.5,28.5C 234.842,51.7492 222.508,74.4159 209.5,96.5C 207.047,98.3408 204.713,100.341 202.5,102.5C 207.332,90.3488 213.665,79.0154 221.5,68.5C 222.816,61.5421 225.483,55.2088 229.5,49.5C 231.229,45.0472 233.729,41.0472 237,37.5C 237.803,34.7558 238.803,32.0891 240,29.5C 243.976,26.9052 247.476,23.9052 250.5,20.5C 250.291,19.914 249.957,19.414 249.5,19C 252.597,14.6085 256.597,12.7752 261.5,13.5 Z"/></g>
<g><path style="opacity:1" fill="#a1a1a1" d="M 338.5,36.5 C 343.811,39.3507 347.478,43.684 349.5,49.5C 350.5,50.1667 351.5,50.8333 352.5,51.5C 357.975,61.4535 363.142,71.4535 368,81.5C 369.764,88.3606 373.097,94.3606 378,99.5C 381.378,108.628 385.711,117.295 391,125.5C 391.49,126.793 391.657,128.127 391.5,129.5C 389.866,128.028 388.366,126.362 387,124.5C 385.444,119.722 383.61,115.055 381.5,110.5C 377.414,108.415 374.414,105.415 372.5,101.5C 372.672,100.508 372.338,99.8417 371.5,99.5C 370.295,94.3088 368.461,89.3088 366,84.5C 363.594,81.989 361.928,78.989 361,75.5C 360.241,73.9371 359.074,72.9371 357.5,72.5C 350.806,60.8015 344.472,48.8015 338.5,36.5 Z"/></g>
<g><path style="opacity:1" fill="#d3d3d3" d="M 297.5,2.5 C 297.5,2.16667 297.5,1.83333 297.5,1.5C 298.167,1.5 298.833,1.5 299.5,1.5C 308.459,1.87503 316.793,4.37503 324.5,9C 331.035,15.8441 337.869,22.3441 345,28.5C 352.014,40.5322 359.014,52.5322 366,64.5C 368.661,71.8153 371.828,78.8153 375.5,85.5C 373.241,84.656 372.241,82.9893 372.5,80.5C 371.022,80.762 369.689,80.4287 368.5,79.5C 359.532,61.8885 350.365,44.5552 341,27.5C 336.507,24.0066 332.341,20.1733 328.5,16C 323.302,15.1537 319.135,12.6537 316,8.5C 309.964,5.98758 303.797,3.98758 297.5,2.5 Z"/></g>
<g><path style="opacity:1" fill="#6b6b6b" d="M 357.5,72.5 C 359.074,72.9371 360.241,73.9371 361,75.5C 361.928,78.989 363.594,81.989 366,84.5C 368.461,89.3088 370.295,94.3088 371.5,99.5C 370.542,99.0472 369.708,98.3805 369,97.5C 364.619,89.4047 360.785,81.0713 357.5,72.5 Z"/></g>
<g><path style="opacity:1" fill="#bababa" d="M 297.5,2.5 C 303.797,3.98758 309.964,5.98758 316,8.5C 319.135,12.6537 323.302,15.1537 328.5,16C 332.341,20.1733 336.507,24.0066 341,27.5C 350.365,44.5552 359.532,61.8885 368.5,79.5C 369.689,80.4287 371.022,80.762 372.5,80.5C 372.241,82.9893 373.241,84.656 375.5,85.5C 378.493,92.8053 381.493,100.139 384.5,107.5C 391.178,118.187 397.345,129.187 403,140.5C 404.261,145.693 406.095,150.693 408.5,155.5C 409.5,156.167 410.5,156.833 411.5,157.5C 420.389,174.615 429.222,191.615 438,208.5C 438.495,210.473 438.662,212.473 438.5,214.5C 437.167,214.833 435.833,215.167 434.5,215.5C 428.844,201.017 422.511,186.85 415.5,173C 414.207,172.51 412.873,172.343 411.5,172.5C 407.775,156.721 401.108,142.388 391.5,129.5C 391.657,128.127 391.49,126.793 391,125.5C 385.711,117.295 381.378,108.628 378,99.5C 373.097,94.3606 369.764,88.3606 368,81.5C 363.142,71.4535 357.975,61.4535 352.5,51.5C 351.5,50.8333 350.5,50.1667 349.5,49.5C 347.478,43.684 343.811,39.3507 338.5,36.5C 333.208,27.5482 326.542,19.8815 318.5,13.5C 315.503,10.5035 311.836,8.83686 307.5,8.5C 306.167,8.16667 304.833,7.83333 303.5,7.5C 301.981,6.59018 300.315,5.75684 298.5,5C 291.144,4.16872 283.811,4.33539 276.5,5.5C 274.816,6.14973 273.483,7.14973 272.5,8.5C 268.749,9.97289 265.083,11.6396 261.5,13.5C 262.942,12.1805 263.608,10.5138 263.5,8.5C 266.632,6.71129 269.965,5.37796 273.5,4.5C 274.609,3.71003 275.942,3.21003 277.5,3C 284.158,2.50042 290.825,2.33375 297.5,2.5 Z"/></g>
<g><path style="opacity:1" fill="#6d6d6d" d="M 307.5,8.5 C 311.836,8.83686 315.503,10.5035 318.5,13.5C 314.407,12.6176 310.74,10.951 307.5,8.5 Z"/></g>
<g><path style="opacity:1" fill="#797979" d="M 303.5,7.5 C 298.695,6.13014 293.695,5.46347 288.5,5.5C 282.922,5.44838 277.588,6.44838 272.5,8.5C 273.483,7.14973 274.816,6.14973 276.5,5.5C 283.811,4.33539 291.144,4.16872 298.5,5C 300.315,5.75684 301.981,6.59018 303.5,7.5 Z"/></g>
<g><path style="opacity:1" fill="#010101" d="M 366.5,318.5 C 315.833,319.833 265.167,319.833 214.5,318.5C 239.384,260.825 264.551,203.492 290,146.5C 315.994,203.661 341.494,260.994 366.5,318.5 Z"/></g>
<g><path style="opacity:1" fill="#919191" d="M 372.5,101.5 C 374.414,105.415 377.414,108.415 381.5,110.5C 383.61,115.055 385.444,119.722 387,124.5C 388.366,126.362 389.866,128.028 391.5,129.5C 401.108,142.388 407.775,156.721 411.5,172.5C 410.728,171.306 409.728,170.306 408.5,169.5C 407.519,164.871 405.519,160.871 402.5,157.5C 394.931,144.916 388.098,131.916 382,118.5C 377.81,113.433 374.643,107.766 372.5,101.5 Z"/></g>
<g><path style="opacity:1" fill="#3b3b3b" d="M 402.5,157.5 C 405.519,160.871 407.519,164.871 408.5,169.5C 405.939,165.842 403.939,161.842 402.5,157.5 Z"/></g>
<g><path style="opacity:1" fill="#979797" d="M 209.5,96.5 C 196.432,123.067 182.432,149.067 167.5,174.5C 164.609,178.482 162.276,182.815 160.5,187.5C 160.06,191.252 158.393,194.252 155.5,196.5C 156.14,193.135 156.974,189.802 158,186.5C 162.562,177.165 167.562,168.165 173,159.5C 174.041,155.002 175.541,150.669 177.5,146.5C 180.279,142.332 182.779,137.999 185,133.5C 186.356,132.62 187.856,132.286 189.5,132.5C 190.485,128.191 192.319,124.191 195,120.5C 195.333,118.833 195.667,117.167 196,115.5C 199.199,111.775 201.366,107.442 202.5,102.5C 204.713,100.341 207.047,98.3408 209.5,96.5 Z"/></g>
<g><path style="opacity:1" fill="#c7c7c7" d="M 229.5,49.5 C 225.483,55.2088 222.816,61.5421 221.5,68.5C 213.665,79.0154 207.332,90.3488 202.5,102.5C 199.932,106.413 196.932,110.08 193.5,113.5C 191.462,117.698 189.795,122.031 188.5,126.5C 186.61,127.424 185.11,128.757 184,130.5C 178.008,140.815 172.842,151.482 168.5,162.5C 156.576,179.349 147.576,197.683 141.5,217.5C 140.675,218.386 139.675,218.719 138.5,218.5C 137.462,223.059 134.962,226.726 131,229.5C 122.047,245.402 114.214,261.735 107.5,278.5C 106.575,285.209 104.575,291.542 101.5,297.5C 101.5,298.167 101.167,298.5 100.5,298.5C 99.8501,298.196 99.1835,297.863 98.5,297.5C 88.7625,313.877 80.4292,330.877 73.5,348.5C 72.325,348.281 71.325,348.614 70.5,349.5C 69.3995,351.642 68.3995,353.808 67.5,356C 67.7284,356.399 68.0618,356.565 68.5,356.5C 66.4509,359.55 63.7843,361.883 60.5,363.5C 70.6113,340.608 82.278,318.608 95.5,297.5C 101.333,284.5 107.167,271.5 113,258.5C 113.925,257.953 114.758,257.287 115.5,256.5C 124.448,237.271 134.448,218.604 145.5,200.5C 154.137,181.893 163.304,163.56 173,145.5C 181.792,131.94 190.125,117.94 198,103.5C 201.887,96.3945 205.22,89.0612 208,81.5C 212.05,77.4535 215.716,73.1202 219,68.5C 220.438,60.9519 223.938,54.6186 229.5,49.5 Z"/></g>
<g><path style="opacity:1" fill="#898989" d="M 411.5,172.5 C 412.873,172.343 414.207,172.51 415.5,173C 422.511,186.85 428.844,201.017 434.5,215.5C 434.5,216.167 434.167,216.5 433.5,216.5C 425.278,202.281 417.945,187.615 411.5,172.5 Z"/></g>
<g><path style="opacity:1" fill="#595959" d="M 167.5,174.5 C 166.101,179.389 163.767,183.722 160.5,187.5C 162.276,182.815 164.609,178.482 167.5,174.5 Z"/></g>
<g><path style="opacity:1" fill="#f6f6f6" d="M 115.5,201.5 C 95.9583,247.846 75.4583,294.179 54,340.5C 54.286,353.292 51.4527,365.292 45.5,376.5C 45.6236,377.107 45.9569,377.44 46.5,377.5C 44.3331,378.198 42.4998,379.531 41,381.5C 40.3333,368.5 40.3333,355.5 41,342.5C 59.3446,301.813 77.6779,261.146 96,220.5C 102.315,214.019 108.815,207.685 115.5,201.5 Z"/></g>
<g><path style="opacity:1" fill="#6f6f6f" d="M 155.5,196.5 C 153.246,202.965 150.246,208.965 146.5,214.5C 148.073,209.033 149.906,203.7 152,198.5C 152.333,199.167 152.667,199.833 153,200.5C 153.2,198.68 154.034,197.347 155.5,196.5 Z"/></g>
<g><path style="opacity:1" fill="#f0f0f0" d="M 464.5,255.5 C 461.709,247.918 457.876,240.918 453,234.5C 451.695,227.876 449.195,221.876 445.5,216.5C 449.534,214.041 453.868,213.041 458.5,213.5C 463.89,225.858 469.557,238.024 475.5,250C 471.852,251.934 468.186,253.767 464.5,255.5 Z"/></g>
<g><path style="opacity:1" fill="#707070" d="M 434.5,220.5 C 434.842,219.662 435.508,219.328 436.5,219.5C 438.796,221.347 440.629,223.681 442,226.5C 445.229,231.744 447.396,237.41 448.5,243.5C 446.411,240.563 444.911,237.23 444,233.5C 440.45,230.267 438.117,226.267 437,221.5C 436.329,220.748 435.496,220.414 434.5,220.5 Z"/></g>
<g><path style="opacity:1" fill="#9d9d9d" d="M 436.5,219.5 C 437.568,218.566 438.901,218.232 440.5,218.5C 443.725,223.294 446.225,228.627 448,234.5C 449.666,238.664 452.499,241.664 456.5,243.5C 457.756,248.218 459.756,252.552 462.5,256.5C 461.261,257.212 460.761,258.212 461,259.5C 462.011,258.663 463.178,258.33 464.5,258.5C 466.953,265.443 470.453,271.776 475,277.5C 475.667,280.167 476.333,282.833 477,285.5C 480.555,291.203 483.388,297.203 485.5,303.5C 483.972,304.309 482.306,304.976 480.5,305.5C 479.574,299.733 477.074,294.733 473,290.5C 470.224,283.051 466.557,276.051 462,269.5C 458.338,260.31 453.838,251.643 448.5,243.5C 447.396,237.41 445.229,231.744 442,226.5C 440.629,223.681 438.796,221.347 436.5,219.5 Z"/></g>
<g><path style="opacity:1" fill="#c7c7c7" d="M 445.5,216.5 C 449.195,221.876 451.695,227.876 453,234.5C 457.876,240.918 461.709,247.918 464.5,255.5C 463.833,255.833 463.167,256.167 462.5,256.5C 459.756,252.552 457.756,248.218 456.5,243.5C 452.499,241.664 449.666,238.664 448,234.5C 446.225,228.627 443.725,223.294 440.5,218.5C 441.93,217.463 443.597,216.796 445.5,216.5 Z"/></g>
<g><path style="opacity:1" fill="#010101" d="M 116.5,443.5 C 115.596,444.209 115.263,445.209 115.5,446.5C 129.677,446.829 143.677,446.496 157.5,445.5C 169.595,418.631 181.761,391.631 194,364.5C 194.813,362.564 195.313,360.564 195.5,358.5C 258.833,358.5 322.167,358.5 385.5,358.5C 387.869,365.102 390.535,371.602 393.5,378C 372.643,385.386 351.977,393.386 331.5,402C 317.52,408.323 303.854,415.157 290.5,422.5C 291.365,423.583 292.365,423.749 293.5,423C 326.758,408.635 360.758,396.135 395.5,385.5C 397.146,386.779 398.313,388.445 399,390.5C 406.705,409.143 414.871,427.477 423.5,445.5C 437.657,446.496 451.99,446.829 466.5,446.5C 466.737,445.209 466.404,444.209 465.5,443.5C 455.187,420.55 445.187,397.55 435.5,374.5C 460.363,369.728 485.363,365.728 510.5,362.5C 511.167,362.5 511.833,362.5 512.5,362.5C 518.048,372.263 523.048,382.263 527.5,392.5C 517.943,395.603 508.276,398.603 498.5,401.5C 503.129,404.821 507.796,408.154 512.5,411.5C 514.402,418.878 512.402,425.044 506.5,430C 485.622,441.562 464.289,452.062 442.5,461.5C 447.719,465.704 452.886,470.037 458,474.5C 460.408,478.142 461.075,482.142 460,486.5C 454.645,495.525 447.145,502.025 437.5,506C 432.699,510.613 429.699,516.113 428.5,522.5C 410.147,518.906 391.814,515.239 373.5,511.5C 373.389,510.883 373.056,510.383 372.5,510C 360.518,507.67 348.518,505.503 336.5,503.5C 331.529,503.344 326.862,502.344 322.5,500.5C 305.241,494.754 287.575,493.587 269.5,497C 265.941,497.852 262.607,499.019 259.5,500.5C 249.901,501.385 240.568,503.052 231.5,505.5C 222.477,506.592 213.811,508.592 205.5,511.5C 204.833,511.5 204.167,511.5 203.5,511.5C 194.829,512.888 186.162,514.388 177.5,516C 173.556,516.664 169.889,517.831 166.5,519.5C 165.739,516.146 164.072,513.313 161.5,511C 157.012,509.118 152.345,507.785 147.5,507C 138.538,502.552 136.204,495.719 140.5,486.5C 137.157,483.369 133.157,481.202 128.5,480C 123.341,474.234 120.841,467.401 121,459.5C 116.833,463 112.667,466.5 108.5,470C 100.677,471.76 94.3436,469.26 89.5,462.5C 88.8333,457.5 88.1667,452.5 87.5,447.5C 83.5548,446.732 79.5548,446.232 75.5,446C 68.679,443.528 66.179,438.694 68,431.5C 69.8528,424.296 71.8528,417.296 74,410.5C 68.984,415.496 62.984,418.83 56,420.5C 48.7644,419.818 43.931,416.151 41.5,409.5C 43.2451,407.967 44.2451,405.967 44.5,403.5C 47.1114,400.867 49.2781,397.867 51,394.5C 51.6077,392.846 52.1077,391.179 52.5,389.5C 54.8333,384.833 57.1667,380.167 59.5,375.5C 62.4513,371.537 65.4513,367.537 68.5,363.5C 78.3192,354.181 87.9859,344.681 97.5,335C 130.195,307.633 164.029,281.8 199,257.5C 171.842,319.497 144.342,381.497 116.5,443.5 Z"/></g>
<g><path style="opacity:1" fill="#b8b8b8" d="M 202.5,102.5 C 201.366,107.442 199.199,111.775 196,115.5C 195.667,117.167 195.333,118.833 195,120.5C 192.319,124.191 190.485,128.191 189.5,132.5C 187.856,132.286 186.356,132.62 185,133.5C 182.779,137.999 180.279,142.332 177.5,146.5C 175.541,150.669 174.041,155.002 173,159.5C 167.562,168.165 162.562,177.165 158,186.5C 156.974,189.802 156.14,193.135 155.5,196.5C 154.034,197.347 153.2,198.68 153,200.5C 152.667,199.833 152.333,199.167 152,198.5C 149.906,203.7 148.073,209.033 146.5,214.5C 145.449,215.222 144.782,216.222 144.5,217.5C 142.218,218.489 140.551,220.156 139.5,222.5C 137.382,226.294 135.715,230.294 134.5,234.5C 133.167,235.5 131.833,236.5 130.5,237.5C 123.534,250.814 116.534,264.147 109.5,277.5C 109.043,278.298 108.376,278.631 107.5,278.5C 114.214,261.735 122.047,245.402 131,229.5C 134.962,226.726 137.462,223.059 138.5,218.5C 139.675,218.719 140.675,218.386 141.5,217.5C 147.576,197.683 156.576,179.349 168.5,162.5C 172.842,151.482 178.008,140.815 184,130.5C 185.11,128.757 186.61,127.424 188.5,126.5C 189.795,122.031 191.462,117.698 193.5,113.5C 196.932,110.08 199.932,106.413 202.5,102.5 Z"/></g>
<g><path style="opacity:1" fill="#8c8c8c" d="M 144.5,217.5 C 143.268,221.247 141.768,224.914 140,228.5C 136.569,234.928 132.736,241.094 128.5,247C 121.105,260.165 114.271,273.665 108,287.5C 106.181,291.144 104.014,294.478 101.5,297.5C 104.575,291.542 106.575,285.209 107.5,278.5C 108.376,278.631 109.043,278.298 109.5,277.5C 116.534,264.147 123.534,250.814 130.5,237.5C 131.833,236.5 133.167,235.5 134.5,234.5C 135.715,230.294 137.382,226.294 139.5,222.5C 140.551,220.156 142.218,218.489 144.5,217.5 Z"/></g>
<g><path style="opacity:1" fill="#d3d3d3" d="M 485.5,303.5 C 483.388,297.203 480.555,291.203 477,285.5C 476.333,282.833 475.667,280.167 475,277.5C 470.453,271.776 466.953,265.443 464.5,258.5C 466.223,257.193 468.057,257.193 470,258.5C 475.978,273.289 483.144,287.455 491.5,301C 489.842,302.663 487.842,303.496 485.5,303.5 Z"/></g>
<g><path style="opacity:1" fill="#5c5c5c" d="M 483.5,308.5 C 483.833,308.5 484.167,308.5 484.5,308.5C 485.156,311.659 486.823,314.159 489.5,316C 490.233,317.766 490.567,319.599 490.5,321.5C 488.947,318.76 487.114,316.093 485,313.5C 484.392,311.846 483.892,310.179 483.5,308.5 Z"/></g>
<g><path style="opacity:1" fill="#e4e4e4" d="M 511.5,346.5 C 509.613,336.734 505.613,328.067 499.5,320.5C 498.691,318.929 498.357,317.262 498.5,315.5C 497.325,315.719 496.325,315.386 495.5,314.5C 494.153,311.807 492.82,309.14 491.5,306.5C 492.967,305.708 494.3,305.708 495.5,306.5C 502.628,317.401 509.294,328.734 515.5,340.5C 515.76,342.187 516.427,343.687 517.5,345C 515.655,346.128 513.655,346.628 511.5,346.5 Z"/></g>
<g><path style="opacity:1" fill="#5e5e5e" d="M 214.5,318.5 C 265.167,319.833 315.833,319.833 366.5,318.5C 367.043,318.56 367.376,318.893 367.5,319.5C 316.167,320.833 264.833,320.833 213.5,319.5C 213.624,318.893 213.957,318.56 214.5,318.5 Z"/></g>
<g><path style="opacity:1" fill="#9a9a9a" d="M 488.5,307.5 C 491.509,314.342 495.176,320.842 499.5,327C 502.277,333.94 505.277,340.773 508.5,347.5C 506.786,348.738 504.786,349.405 502.5,349.5C 502.918,348.778 503.584,348.278 504.5,348C 500.372,338.753 495.705,329.919 490.5,321.5C 490.567,319.599 490.233,317.766 489.5,316C 486.823,314.159 485.156,311.659 484.5,308.5C 485.708,307.766 487.041,307.433 488.5,307.5 Z"/></g>
<g><path style="opacity:1" fill="#c1c1c1" d="M 491.5,306.5 C 492.82,309.14 494.153,311.807 495.5,314.5C 496.325,315.386 497.325,315.719 498.5,315.5C 498.357,317.262 498.691,318.929 499.5,320.5C 505.613,328.067 509.613,336.734 511.5,346.5C 510.791,347.404 509.791,347.737 508.5,347.5C 505.277,340.773 502.277,333.94 499.5,327C 495.176,320.842 491.509,314.342 488.5,307.5C 489.391,306.89 490.391,306.557 491.5,306.5 Z"/></g>
<g><path style="opacity:1" fill="#9a9a9a" d="M 100.5,298.5 C 91.8542,316.622 82.5209,334.456 72.5,352C 72.7284,352.399 73.0618,352.565 73.5,352.5C 71.8577,353.803 70.1911,355.136 68.5,356.5C 68.0618,356.565 67.7284,356.399 67.5,356C 68.3995,353.808 69.3995,351.642 70.5,349.5C 71.325,348.614 72.325,348.281 73.5,348.5C 80.4292,330.877 88.7625,313.877 98.5,297.5C 99.1835,297.863 99.8501,298.196 100.5,298.5 Z"/></g>
<g><path style="opacity:1" fill="#cacaca" d="M 510.5,362.5 C 514.634,361.515 518.968,361.182 523.5,361.5C 527.044,371.583 531.377,381.249 536.5,390.5C 535.041,390.433 533.708,390.766 532.5,391.5C 529.237,385.208 525.903,378.874 522.5,372.5C 518.947,370.211 517.281,366.878 517.5,362.5C 515.833,362.5 514.167,362.5 512.5,362.5C 511.833,362.5 511.167,362.5 510.5,362.5 Z"/></g>
<g><path style="opacity:1" fill="#959595" d="M 512.5,362.5 C 514.167,362.5 515.833,362.5 517.5,362.5C 517.281,366.878 518.947,370.211 522.5,372.5C 525.903,378.874 529.237,385.208 532.5,391.5C 530.883,392.038 529.216,392.371 527.5,392.5C 523.048,382.263 518.048,372.263 512.5,362.5 Z"/></g>
<g><path style="opacity:1" fill="#545454" d="M 52.5,389.5 C 52.1077,391.179 51.6077,392.846 51,394.5C 49.2781,397.867 47.1114,400.867 44.5,403.5C 46.2416,398.242 48.9083,393.575 52.5,389.5 Z"/></g>
<g><path style="opacity:1" fill="#b0b0b0" d="M 59.5,375.5 C 57.1667,380.167 54.8333,384.833 52.5,389.5C 48.9083,393.575 46.2416,398.242 44.5,403.5C 42.7549,405.033 41.7549,407.033 41.5,409.5C 40.3709,407.372 40.2042,405.039 41,402.5C 45.858,392.498 52.0247,383.498 59.5,375.5 Z"/></g>
<g><path style="opacity:1" fill="#5d5d5d" d="M 44.5,403.5 C 44.2451,405.967 43.2451,407.967 41.5,409.5C 41.7549,407.033 42.7549,405.033 44.5,403.5 Z"/></g>
<g><path style="opacity:1" fill="#2f2f2f" d="M 116.5,443.5 C 129.792,445.482 143.459,446.149 157.5,445.5C 143.677,446.496 129.677,446.829 115.5,446.5C 115.263,445.209 115.596,444.209 116.5,443.5 Z"/></g>
<g><path style="opacity:1" fill="#2f2f2f" d="M 465.5,443.5 C 466.404,444.209 466.737,445.209 466.5,446.5C 451.99,446.829 437.657,446.496 423.5,445.5C 437.873,446.149 451.873,445.482 465.5,443.5 Z"/></g>
<g><path style="opacity:1" fill="#3d3d3d" d="M 322.5,500.5 C 311.737,498.605 300.904,496.938 290,495.5C 279.694,496.567 269.528,498.233 259.5,500.5C 262.607,499.019 265.941,497.852 269.5,497C 287.575,493.587 305.241,494.754 322.5,500.5 Z"/></g>
<g><path style="opacity:1" fill="#c4c4c4" d="M 422.5,530.5 C 421.486,531.674 420.153,532.34 418.5,532.5C 396.646,529.366 375.313,524.533 354.5,518C 338.749,516.728 323.416,513.561 308.5,508.5C 289.871,505.189 271.704,506.855 254,513.5C 227.111,517.976 200.611,523.643 174.5,530.5C 172.833,529.5 171.5,528.167 170.5,526.5C 182.125,525.541 193.458,523.375 204.5,520C 216.339,519.5 228.005,517.833 239.5,515C 240.833,514 242.167,513 243.5,512C 259.335,508.6 275.335,506.433 291.5,505.5C 300.619,505.69 309.619,506.857 318.5,509C 344.264,515.552 370.264,520.886 396.5,525C 404.974,527.928 413.641,529.761 422.5,530.5 Z"/></g>
<g><path style="opacity:1" fill="#989898" d="M 427.5,525.5 C 427.573,527.027 426.906,528.027 425.5,528.5C 396.537,524.007 367.87,518.174 339.5,511C 332.882,509.679 326.216,508.679 319.5,508C 305.314,502.42 290.647,501.087 275.5,504C 240.01,510.731 204.677,517.898 169.5,525.5C 167.75,524.341 166.75,522.674 166.5,520.5C 167.167,520.5 167.833,520.5 168.5,520.5C 168.47,521.497 168.97,522.164 170,522.5C 180.374,519.743 190.874,517.576 201.5,516C 215.58,512.647 229.58,508.98 243.5,505C 260.22,503.622 276.887,501.789 293.5,499.5C 306.988,499.864 319.988,502.531 332.5,507.5C 344.472,509.767 356.472,511.934 368.5,514C 371.376,514.438 374.043,515.438 376.5,517C 393.545,519.602 410.545,522.435 427.5,525.5 Z"/></g>
<g><path style="opacity:1" fill="#343434" d="M 336.5,503.5 C 348.518,505.503 360.518,507.67 372.5,510C 373.056,510.383 373.389,510.883 373.5,511.5C 361.853,509.288 350.187,507.121 338.5,505C 337.584,504.722 336.918,504.222 336.5,503.5 Z"/></g>
<g><path style="opacity:1" fill="#3c3c3c" d="M 231.5,505.5 C 229.852,506.927 227.852,507.76 225.5,508C 218.889,509.481 212.222,510.648 205.5,511.5C 213.811,508.592 222.477,506.592 231.5,505.5 Z"/></g>
<g><path style="opacity:1" fill="#787878" d="M 322.5,500.5 C 326.862,502.344 331.529,503.344 336.5,503.5C 336.918,504.222 337.584,504.722 338.5,505C 350.187,507.121 361.853,509.288 373.5,511.5C 391.814,515.239 410.147,518.906 428.5,522.5C 428.737,523.791 428.404,524.791 427.5,525.5C 410.545,522.435 393.545,519.602 376.5,517C 374.043,515.438 371.376,514.438 368.5,514C 356.472,511.934 344.472,509.767 332.5,507.5C 319.988,502.531 306.988,499.864 293.5,499.5C 276.887,501.789 260.22,503.622 243.5,505C 229.58,508.98 215.58,512.647 201.5,516C 190.874,517.576 180.374,519.743 170,522.5C 168.97,522.164 168.47,521.497 168.5,520.5C 180.751,519.16 192.417,516.16 203.5,511.5C 204.167,511.5 204.833,511.5 205.5,511.5C 212.222,510.648 218.889,509.481 225.5,508C 227.852,507.76 229.852,506.927 231.5,505.5C 240.568,503.052 249.901,501.385 259.5,500.5C 269.528,498.233 279.694,496.567 290,495.5C 300.904,496.938 311.737,498.605 322.5,500.5 Z"/></g>
<g><path style="opacity:1" fill="#525252" d="M 203.5,511.5 C 192.417,516.16 180.751,519.16 168.5,520.5C 167.833,520.5 167.167,520.5 166.5,520.5C 166.5,520.167 166.5,519.833 166.5,519.5C 169.889,517.831 173.556,516.664 177.5,516C 186.162,514.388 194.829,512.888 203.5,511.5 Z"/></g>
<g><path style="opacity:1" fill="#dadada" d="M 418.5,532.5 C 417.71,533.401 416.71,534.068 415.5,534.5C 396.901,530.042 378.068,526.709 359,524.5C 356.995,524.001 355.495,522.834 354.5,521C 341.404,518.476 328.404,515.476 315.5,512C 303.23,509.591 290.897,509.091 278.5,510.5C 250.207,517.29 221.874,523.29 193.5,528.5C 187.28,531.337 180.947,532.003 174.5,530.5C 200.611,523.643 227.111,517.976 254,513.5C 271.704,506.855 289.871,505.189 308.5,508.5C 323.416,513.561 338.749,516.728 354.5,518C 375.313,524.533 396.646,529.366 418.5,532.5 Z"/></g>
<g><path style="opacity:1" fill="#ededed" d="M 415.5,534.5 C 414.504,535.665 413.171,536.332 411.5,536.5C 391.266,531.905 370.932,527.738 350.5,524C 344.539,521.747 338.539,519.747 332.5,518C 325.861,517.806 319.528,516.473 313.5,514C 306.059,512.673 298.559,511.839 291,511.5C 269.368,514.893 247.868,519.06 226.5,524C 215.498,525.568 204.498,527.068 193.5,528.5C 221.874,523.29 250.207,517.29 278.5,510.5C 290.897,509.091 303.23,509.591 315.5,512C 328.404,515.476 341.404,518.476 354.5,521C 355.495,522.834 356.995,524.001 359,524.5C 378.068,526.709 396.901,530.042 415.5,534.5 Z"/></g>
<g><path style="opacity:1" fill="#b2b2b2" d="M 425.5,528.5 C 424.71,529.401 423.71,530.068 422.5,530.5C 413.641,529.761 404.974,527.928 396.5,525C 370.264,520.886 344.264,515.552 318.5,509C 309.619,506.857 300.619,505.69 291.5,505.5C 275.335,506.433 259.335,508.6 243.5,512C 242.167,513 240.833,514 239.5,515C 228.005,517.833 216.339,519.5 204.5,520C 193.458,523.375 182.125,525.541 170.5,526.5C 169.833,526.5 169.5,526.167 169.5,525.5C 204.677,517.898 240.01,510.731 275.5,504C 290.647,501.087 305.314,502.42 319.5,508C 326.216,508.679 332.882,509.679 339.5,511C 367.87,518.174 396.537,524.007 425.5,528.5 Z"/></g>
</svg>
